Poster: 
http://imgr.us/images/s7k5tmr8cpyi7zscdku6.jpg

Info:

Format : AVI
Format/Info : Audio Video Interleave
File size : 713 MiB
Duration : 2h 1mn
Overall bit rate : 820 Kbps

Video
ID : 0
Format : MPEG-4 Visual
Format profile : Advanced Simple@L5
Format settings, BVOP : 2
Format settings, QPel : Yes
Format settings, GMC : No warppoints
Format settings, Matrix : Default (H.263)
Codec ID : XVID
Codec ID/Hint : XviD
Duration : 2h 1mn
Source duration : 1h 53mn
Bit rate : 708 Kbps
Width : 640 pixels
Height : 272 pixels
Display aspect ratio : 2.35:1
Frame rate : 25.000 fps
Color space : YUV
Chroma subsampling : 4:2:0
Bit depth : 8 bits
Scan type : Progressive
Compression mode : Lossy
Bits/(Pixel*Frame) : 0.163
Stream size : 574 MiB (81%)
Writing library : XviD 1.2.1 (UTC 2008-12-04)

Audio
ID : 1
Format : MPEG Audio
Format version : Version 1
Format profile : Layer 3
Mode : Joint stereo
Mode extension : MS Stereo
Codec ID : 55
Codec ID/Hint : MP3
Duration : 2h 1mn
Source duration : 1h 53mn
Bit rate mode : Constant
Bit rate : 112 Kbps
Channel(s) : 2 channels
Sampling rate : 48.0 KHz
Compression mode : Lossy
Stream size : 90.8 MiB (13%)
Alignment : Aligned on interleaves
Interleave, duration : 24 ms (0.60 video frame)
Interleave, preload duration : 192 ms


Screens:
 
http://imgr.us/images/7wqcl2dw7vvn0a243jcw.png 
http://imgr.us/images/bc903h9djihjta4yr4.png 
http://imgr.us/images/rem29297658tipjicupw.png 
http://imgr.us/images/qtidw9hpzrra7sfvq5.png 
http://imgr.us/images/hbtdowgktqs1p4txi4m.png